<svg width="32" height="34" viewBox="0 0 32 34" fill="none" xmlns="http://www.w3.org/2000/svg">
<path d="M15.583 34C18.379 34 20.967 33.333 23.347 32C25.727 30.667 27.625 28.724 29.042 26.171C30.458 23.619 31.167 20.571 31.167 17.029C31.167 13.486 30.458 10.429 29.042 7.857C27.625 5.286 25.727 3.333 23.347 2C20.967 0.667 18.379 0 15.583 0C12.788 0 10.2 0.667 7.82 2C5.44 3.333 3.542 5.286 2.125 7.857C0.708 10.43 0 13.486 0 17.03C0 20.572 0.708 23.62 2.125 26.172C3.542 28.724 5.44 30.667 7.82 32C10.2 33.333 12.788 34 15.583 34Z" fill="#F09C96"/>
<path fill-rule="evenodd" clip-rule="evenodd" d="M16.432 8.153C15.4071 7.93682 14.3642 7.81697 13.317 7.795C11.132 7.752 9.165 8.172 7.678 8.955C7.31526 9.14463 7.01905 9.44048 6.829 9.803C6.049 11.29 5.627 13.257 5.669 15.442C5.69152 16.4896 5.81171 17.5328 6.028 18.558C7.205 24.184 10.398 27.67 13.777 26.963C16.171 26.462 18.259 24.237 18.567 20.693C22.111 20.385 24.335 18.296 24.837 15.903C25.544 12.523 22.057 9.331 16.432 8.154V8.153Z" stroke="#023A15" stroke-width="1.417"/>
<path d="M7.254 9.379L22.751 24.876" stroke="#023A15" stroke-width="1.417" stroke-linecap="round" stroke-linejoin="round"/>
<path d="M19.4959 9.40682L17.3957 19.5204L7.28139 21.6206" stroke="#023A15" stroke-width="1.417" stroke-linecap="round" stroke-linejoin="round"/>
<path d="M14.5208 7.8635L13.1346 15.2599L5.90814 16.4761" stroke="#023A15" stroke-width="1.417" stroke-linecap="round" stroke-linejoin="round"/>
</svg>
