<svg width="135" height="34" viewBox="0 0 135 34" fill="none" xmlns="http://www.w3.org/2000/svg">
<path d="M15.583 34C18.379 34 20.967 33.333 23.347 32C25.727 30.667 27.625 28.724 29.042 26.171C30.458 23.619 31.167 20.571 31.167 17.029C31.167 13.486 30.458 10.429 29.042 7.857C27.625 5.286 25.727 3.333 23.347 2C20.967 0.667 18.379 0 15.583 0C12.788 0 10.2 0.667 7.82 2C5.44 3.333 3.542 5.286 2.125 7.857C0.708 10.43 0 13.486 0 17.03C0 20.572 0.708 23.62 2.125 26.172C3.542 28.724 5.44 30.667 7.82 32C10.2 33.333 12.788 34 15.583 34Z" fill="#F09C96"/>
<path fill-rule="evenodd" clip-rule="evenodd" d="M16.432 8.153C15.4071 7.93682 14.3642 7.81697 13.317 7.795C11.132 7.752 9.165 8.172 7.678 8.955C7.31526 9.14463 7.01905 9.44048 6.829 9.803C6.049 11.29 5.627 13.257 5.669 15.442C5.69152 16.4896 5.81171 17.5328 6.028 18.558C7.205 24.184 10.398 27.67 13.777 26.963C16.171 26.462 18.259 24.237 18.567 20.693C22.111 20.385 24.335 18.296 24.837 15.903C25.544 12.523 22.057 9.331 16.432 8.154V8.153Z" stroke="#023A15" stroke-width="1.417"/>
<path d="M7.254 9.379L22.751 24.876" stroke="#023A15" stroke-width="1.417" stroke-linecap="round" stroke-linejoin="round"/>
<path d="M19.4959 9.40682L17.3957 19.5204L7.28139 21.6206" stroke="#023A15" stroke-width="1.417" stroke-linecap="round" stroke-linejoin="round"/>
<path d="M14.5208 7.8635L13.1346 15.2599L5.90814 16.4761" stroke="#023A15" stroke-width="1.417" stroke-linecap="round" stroke-linejoin="round"/>
<path d="M46.589 30.08C48.169 30.08 49.441 29.835 50.407 29.344C51.373 28.854 52.059 28.251 52.466 27.539C52.872 26.826 53.075 26.101 53.075 25.365C53.075 24.384 52.78 23.632 52.189 23.111C51.599 22.59 50.79 22.283 49.763 22.191L44.68 21.8C44.297 21.77 44.002 21.681 43.795 21.536C43.588 21.39 43.484 21.179 43.484 20.903C43.484 20.566 43.676 20.32 44.059 20.167C44.856 20.52 45.807 20.696 46.911 20.696C48.521 20.696 49.809 20.336 50.775 19.615C51.741 18.895 52.224 17.921 52.224 16.694C52.224 16.05 52.078 15.467 51.787 14.946C51.4817 14.41 51.0467 13.9593 50.522 13.635H52.914V13.06H49.303C48.583 12.83 47.785 12.715 46.911 12.715C45.868 12.715 44.948 12.88 44.151 13.21C43.354 13.54 42.737 14.003 42.299 14.601C41.862 15.199 41.644 15.897 41.644 16.694C41.644 17.399 41.813 18.028 42.15 18.58C42.487 19.132 42.963 19.584 43.576 19.937C43.009 20.121 42.526 20.501 42.127 21.076C41.7373 21.6231 41.5282 22.2783 41.529 22.95C41.529 24.054 41.928 24.874 42.725 25.411C42.204 25.564 41.785 25.833 41.472 26.216C41.157 26.599 41 27.006 41 27.435C41 28.309 41.437 28.968 42.311 29.413C43.185 29.858 44.611 30.08 46.589 30.08ZM46.934 20.167C46.551 20.167 46.271 19.902 46.094 19.373C45.918 18.844 45.83 18.005 45.83 16.855C45.83 15.598 45.918 14.678 46.094 14.095C46.271 13.512 46.551 13.221 46.934 13.221C47.317 13.221 47.597 13.512 47.774 14.095C47.95 14.678 48.038 15.598 48.038 16.855C48.038 18.005 47.95 18.845 47.774 19.373C47.597 19.903 47.317 20.167 46.934 20.167ZM47.716 29.137C46.336 29.137 45.255 28.877 44.473 28.355C43.691 27.834 43.3 27.144 43.3 26.285C43.3 26.085 43.323 25.894 43.369 25.71C43.676 25.817 43.975 25.879 44.266 25.894L49.372 26.377C50.047 26.438 50.499 26.549 50.729 26.711C50.8376 26.7817 50.9263 26.879 50.9866 26.9937C51.047 27.1083 51.0771 27.2365 51.074 27.366C51.074 27.918 50.775 28.351 50.177 28.666C49.579 28.98 48.759 29.137 47.716 29.137ZM60.811 25.135V25.02C60.32 24.913 59.933 24.729 59.649 24.468C59.366 24.208 59.224 23.816 59.224 23.295V20.259C59.224 18.864 59.431 17.905 59.844 17.384C60.259 16.863 60.872 16.602 61.684 16.602C62.298 16.602 62.75 16.694 63.042 16.878H63.157V12.715H62.812C61.754 12.715 60.902 13.167 60.259 14.072C59.615 14.977 59.254 16.41 59.178 18.373H59.04V12.715L53.727 14.302V14.417C54.125 14.54 54.413 14.77 54.589 15.107C54.765 15.444 54.854 15.92 54.854 16.533V23.295C54.854 24.123 54.478 24.698 53.727 25.02V25.135H60.811ZM69.167 25.48C70.256 25.48 71.268 25.116 72.203 24.388C73.139 23.659 73.744 22.49 74.02 20.88L73.836 20.834C73.53 21.264 73.162 21.574 72.732 21.765C72.303 21.957 71.797 22.053 71.214 22.053C70.172 22.053 69.324 21.719 68.673 21.053C68.021 20.385 67.611 19.408 67.443 18.12H74.066C74.066 16.77 73.821 15.694 73.33 14.889C72.84 14.083 72.242 13.52 71.536 13.198C70.8437 12.8788 70.0903 12.714 69.328 12.715C68.3383 12.7035 67.3697 13.001 66.557 13.566C65.737 14.133 65.092 14.919 64.625 15.924C64.157 16.928 63.923 18.066 63.923 19.339C63.923 20.627 64.169 21.735 64.659 22.662C65.15 23.59 65.798 24.292 66.603 24.767C67.408 25.242 68.263 25.48 69.167 25.48ZM70.225 17.407H67.373C67.3546 17.1929 67.3469 16.9779 67.35 16.763C67.35 15.72 67.477 14.912 67.73 14.336C67.983 13.761 68.347 13.474 68.822 13.474C69.298 13.474 69.65 13.765 69.88 14.348C70.11 14.931 70.225 15.95 70.225 17.407ZM80.537 25.48C81.626 25.48 82.637 25.116 83.573 24.388C84.508 23.659 85.114 22.49 85.39 20.88L85.206 20.834C84.899 21.264 84.531 21.574 84.102 21.765C83.672 21.957 83.167 22.053 82.584 22.053C81.541 22.053 80.694 21.719 80.043 21.053C79.391 20.385 78.981 19.408 78.812 18.12H85.436C85.436 16.77 85.191 15.694 84.7 14.889C84.21 14.083 83.611 13.52 82.906 13.198C82.2137 12.8788 81.4603 12.714 80.698 12.715C79.708 12.7033 78.7389 13.0008 77.926 13.566C77.106 14.133 76.462 14.919 75.995 15.924C75.527 16.928 75.293 18.066 75.293 19.339C75.293 20.627 75.538 21.735 76.029 22.662C76.519 23.59 77.167 24.292 77.973 24.767C78.777 25.242 79.633 25.48 80.537 25.48ZM81.595 17.407H78.743C78.7246 17.1929 78.7169 16.9779 78.72 16.763C78.72 15.72 78.846 14.912 79.1 14.336C79.352 13.761 79.717 13.474 80.192 13.474C80.667 13.474 81.02 13.765 81.25 14.348C81.48 14.931 81.595 15.95 81.595 17.407ZM92.712 25.135V25.02C92.5957 24.9722 92.49 24.9018 92.4011 24.8129C92.3122 24.724 92.2418 24.6183 92.194 24.502C92.094 24.265 92.044 23.939 92.044 23.525V15.222C92.1685 15.039 92.3371 14.8904 92.5343 14.7899C92.7315 14.6894 92.9508 14.6403 93.172 14.647C93.509 14.647 93.77 14.766 93.954 15.003C94.138 15.241 94.23 15.59 94.23 16.05V23.525C94.23 23.939 94.18 24.265 94.08 24.502C94.0323 24.6182 93.9621 24.7238 93.8733 24.8127C93.7846 24.9016 93.6791 24.9721 93.563 25.02V25.135H99.727V25.02C98.975 24.698 98.6 24.123 98.6 23.295V16.05C98.6 14.992 98.308 14.172 97.726 13.589C97.143 13.006 96.323 12.715 95.265 12.715C94.483 12.715 93.812 12.895 93.252 13.255C92.692 13.615 92.29 14.133 92.045 14.808V12.715L86.548 14.279V14.394C86.962 14.517 87.253 14.716 87.422 14.992C87.59 15.268 87.675 15.682 87.675 16.234V23.295C87.675 24.123 87.299 24.698 86.548 25.02V25.135H92.712ZM107.232 25.135V25.02C106.481 24.698 106.105 24.123 106.105 23.295V8.345L100.608 10.024V10.139C101.007 10.277 101.295 10.488 101.471 10.772C101.647 11.055 101.735 11.419 101.735 11.864V23.295C101.735 24.123 101.36 24.698 100.608 25.02V25.135H107.232ZM111.426 12.531C112.07 12.531 112.61 12.312 113.047 11.876C113.485 11.438 113.703 10.906 113.703 10.277C113.703 9.648 113.484 9.112 113.047 8.667C112.611 8.222 112.07 8 111.426 8C110.782 8 110.242 8.222 109.804 8.667C109.592 8.87726 109.424 9.1283 109.312 9.405C109.199 9.6817 109.144 9.97832 109.149 10.277C109.149 10.906 109.367 11.439 109.804 11.876C110.242 12.313 110.782 12.531 111.426 12.531ZM114.853 25.135V25.02C114.102 24.698 113.726 24.123 113.726 23.295V12.715L108.229 14.279V14.394C108.643 14.517 108.934 14.716 109.103 14.992C109.272 15.268 109.356 15.682 109.356 16.234V23.295C109.356 24.123 108.98 24.698 108.229 25.02V25.135H114.853ZM120.243 25.48C121.347 25.48 122.278 25.258 123.037 24.813C123.797 24.368 124.367 23.789 124.751 23.077C125.132 22.3744 125.33 21.5872 125.326 20.788C125.326 19.301 124.613 18.22 123.186 17.545L119.806 15.981C119.484 15.828 119.242 15.636 119.081 15.406C118.928 15.1994 118.844 14.95 118.84 14.693C118.84 14.386 118.962 14.133 119.208 13.934C119.453 13.734 119.836 13.635 120.358 13.635C121.048 13.635 121.718 13.861 122.37 14.313C123.022 14.766 123.555 15.559 123.969 16.694L124.107 16.717L125.533 14.049C124.929 13.6017 124.252 13.2632 123.532 13.049C122.801 12.8273 122.042 12.7147 121.278 12.715C120.128 12.715 119.166 12.93 118.391 13.359C117.617 13.789 117.046 14.329 116.678 14.98C116.31 15.632 116.126 16.295 116.126 16.97C116.126 18.534 116.877 19.669 118.38 20.374L121.945 22.03C122.481 22.26 122.75 22.643 122.75 23.18C122.75 23.533 122.62 23.835 122.359 24.088C122.098 24.341 121.676 24.468 121.094 24.468C120.235 24.468 119.434 24.112 118.69 23.398C117.947 22.685 117.429 21.808 117.138 20.765L117 20.742L115.62 23.847C116.255 24.3652 116.974 24.7698 117.747 25.043C118.547 25.3335 119.392 25.4814 120.243 25.48ZM130.693 25.48C131.812 25.48 132.732 25.15 133.453 24.491C134.169 23.8388 134.693 23.0039 134.97 22.076L134.763 22.007C134.641 22.3282 134.439 22.6131 134.177 22.835C133.908 23.065 133.567 23.18 133.153 23.18C132.755 23.18 132.448 23.034 132.233 22.743C132.019 22.452 131.911 22.053 131.911 21.547V13.681H134.027V13.106H131.911V9.081H131.888C131.382 9.526 130.401 10.338 128.944 11.519C127.503 12.684 126.66 13.374 126.414 13.589V13.704H127.541V22.168C127.541 23.165 127.806 23.966 128.335 24.571C128.864 25.177 129.65 25.48 130.692 25.48H130.693Z" fill="white"/>
</svg>
